<?xml version="1.0" encoding="UTF-8"?>
<!DOCTYPE svg PUBLIC "-//W3C//DTD SVG 1.1//EN" "http://www.w3.org/Graphics/SVG/1.1/DTD/svg11.dtd">
<!-- Creator: CorelDRAW 2017 -->
<svg xmlns="http://www.w3.org/2000/svg" xml:space="preserve" width="5.45416in" height="1.63605in" version="1.1" style="shape-rendering:geometricPrecision; text-rendering:geometricPrecision; image-rendering:optimizeQuality; fill-rule:evenodd; clip-rule:evenodd"
viewBox="0 0 4646 1394"
 xmlns:xlink="http://www.w3.org/1999/xlink">
 <defs>
  <style type="text/css">
   <![CDATA[
    .fil2 {fill:#FDC058;fill-rule:nonzero}
    .fil1 {fill:#FCB531;fill-rule:nonzero}
    .fil0 {fill:#2E56A0;fill-rule:nonzero}
   ]]>
  </style>
 </defs>
 <g id="Layer_x0020_1">
  <metadata id="CorelCorpID_0Corel-Layer"/>
  <g id="_1795589503360">
   <path class="fil0" d="M554 745c-9,50 -46,77 -107,77l-350 0c-60,0 -96,-35 -96,-96l0 -717 9 -8 521 0c4,21 6,42 6,64 -1,25 -6,49 -14,72l-357 0c0,31 1,52 1,83l0 124c31,-1 64,-1 81,-1l211 0c13,43 13,89 0,132l-292 0 0 142c0,26 -1,47 -1,74 26,-1 54,-2 87,-2l306 0c0,20 -1,39 -4,58z"/>
   <path class="fil0" d="M993 664l0 -104c-31,-2 -65,-4 -90,-4 -65,0 -97,35 -97,90 0,40 25,71 70,71 44,-2 86,-21 117,-53l0 0zm142 164c-59,-6 -96,-32 -118,-68 -49,48 -116,76 -185,76 -126,0 -187,-94 -187,-180 0,-140 112,-203 243,-203 29,0 67,0 105,4l0 -32c0,-62 -31,-91 -92,-91 -57,0 -125,20 -189,42 -24,-25 -39,-72 -42,-112 87,-33 180,-52 273,-54 115,0 213,59 213,203l0 246c0,40 9,70 35,89 -10,32 -29,61 -56,82z"/>
   <path class="fil0" d="M1472 453c29,-37 70,-82 100,-115l-4 -5c-41,5 -112,8 -161,8l-112 0c-4,-16 -6,-33 -6,-49 0,-23 4,-46 10,-68l427 0c14,40 21,66 21,88 0,18 -6,35 -18,49l-176 229c-29,35 -65,79 -96,112l4 6c36,-4 71,-6 107,-6l51 0c46,0 91,-4 125,-19 10,21 16,43 16,66 0,43 -24,71 -94,71l-373 0c-15,-40 -20,-61 -20,-80 1,-22 9,-43 24,-59l174 -227z"/>
   <path class="fil0" d="M2228 802c-50,172 -112,279 -293,279 -46,-1 -92,-9 -136,-22 -2,-40 10,-79 34,-112 34,10 68,16 104,17 72,0 111,-47 135,-122l5 -16c-60,-1 -99,-18 -113,-70l-155 -521c31,-14 65,-22 100,-23 40,0 66,16 81,68l71 253c14,47 27,124 36,167 0,5 5,9 10,9l2 0 122 -486c22,-5 44,-7 66,-7 29,-1 58,3 86,12l6 10 -159 564z"/>
   <path class="fil0" d="M2754 354c-35,1 -76,24 -108,56l0 409c-27,4 -54,6 -81,6 -27,0 -54,-2 -81,-6l0 -594 7 -8 61 0c50,0 80,28 90,74 50,-44 108,-78 173,-78 70,0 118,34 145,86 55,-49 125,-86 195,-86 110,0 163,82 163,188l0 278c0,44 6,85 26,114 -30,22 -65,34 -102,34 -65,0 -87,-34 -87,-97l0 -281c0,-73 -29,-96 -66,-96 -34,0 -74,24 -107,58l0 408c-27,4 -54,6 -81,6 -27,0 -54,-2 -81,-6l0 -368c0,-73 -27,-97 -65,-97z"/>
   <path class="fil0" d="M3610 462l207 0 0 -14c0,-70 -29,-127 -102,-127 -67,0 -100,51 -105,142l0 0zm1 110c5,82 32,142 127,142 58,-2 116,-16 168,-41 24,26 41,59 46,95 -62,43 -152,68 -239,68 -210,0 -268,-151 -268,-312 0,-180 84,-317 269,-317 163,0 254,110 254,254 1,37 -4,74 -14,110l-344 0 0 0z"/>
   <path class="fil0" d="M4620 680c0,44 6,85 26,114 -30,22 -65,34 -102,34 -65,0 -87,-34 -87,-97l0 -279c0,-67 -14,-97 -65,-97 -36,0 -85,19 -124,58l0 408c-27,4 -54,6 -81,6 -27,0 -54,-2 -81,-6l0 -594 7 -8 62 0c50,0 77,26 87,72 52,-43 115,-76 187,-76 115,0 170,86 170,205l0 261z"/>
   <path class="fil1" d="M3869 191l0 0c-22,-51 -97,-187 -262,-136 -244,74 -215,239 -159,354 -5,5 -7,13 -4,20 4,5 11,7 17,5 21,-7 41,-15 60,-25 89,-39 255,-117 346,-192 4,-1 7,-3 8,-7 9,-16 -7,-18 -7,-18z"/>
   <path class="fil2" d="M3482 116c0,0 178,-87 300,160 24,-13 47,-28 69,-45 0,0 -83,-193 -243,-176 0,0 -86,-9 -125,62z"/>
   <path class="fil1" d="M3615 354c96,7 193,-14 278,-59 0,0 99,-54 -17,-86l-261 145z"/>
   <path class="fil0" d="M3063 1124c16,0 29,-1 40,-1 11,0 19,0 26,0 22,0 38,5 50,14 12,9 18,23 18,40 0,9 -2,18 -7,25 -5,8 -12,13 -20,16 5,2 10,4 14,7 5,3 9,7 12,12 3,5 6,10 8,15 2,6 3,11 3,17 0,19 -6,34 -19,44 -13,10 -31,15 -54,15 -7,0 -17,0 -28,0 -12,0 -25,0 -42,-1l-2 -2 0 -201 2 -2zm67 112l-29 0 0 65c4,0 8,0 13,0 5,0 10,0 14,0 5,0 9,-1 14,-1 4,-1 9,-2 12,-5 3,-3 6,-6 8,-10 2,-4 3,-10 3,-16 0,-4 -1,-8 -2,-12 -1,-4 -3,-7 -6,-10 -3,-3 -6,-5 -11,-7 -4,-2 -10,-3 -16,-3zm-29 -84l0 55 26 0c20,0 30,-9 30,-28 0,-8 -1,-13 -4,-17 -3,-4 -7,-6 -12,-8 -5,-1 -11,-2 -18,-2 -7,0 -14,0 -21,0zm255 32l-38 141c-7,24 -15,41 -25,53 -10,11 -25,17 -45,17 -11,0 -22,-2 -33,-6 0,-4 0,-9 2,-15 2,-6 4,-10 6,-13 9,3 17,4 25,4 15,0 26,-10 32,-31l1 -4c-8,0 -14,-2 -18,-4 -4,-3 -7,-7 -9,-13l-37 -130c8,-4 15,-6 22,-6 6,0 11,1 14,4 3,2 5,7 7,13l17 63c1,5 4,18 9,42 0,1 1,2 3,2l29 -121c5,-1 10,-2 17,-2 7,0 13,1 19,3l1 2zm133 94l0 19 21 -1 73 0c0,6 0,11 -1,15 -2,13 -11,19 -26,19l-84 0c-7,0 -13,-2 -17,-6 -4,-4 -6,-10 -6,-18l0 -179 2 -2 125 0c1,5 1,10 1,16 0,6 -1,12 -3,18l-86 0 0 21 0 31 19 0 51 0c2,5 2,10 2,16 0,6 -1,12 -2,16l-70 0 0 35zm246 33c-1,4 -3,7 -5,11 -3,4 -5,7 -8,9 -13,-2 -22,-7 -28,-17 -13,13 -27,19 -42,19 -8,0 -15,-1 -20,-4 -6,-2 -11,-6 -15,-10 -4,-4 -7,-9 -9,-14 -2,-5 -3,-11 -3,-17 0,-8 1,-16 4,-22 3,-6 7,-12 12,-16 5,-4 11,-7 19,-10 7,-2 15,-3 23,-3 11,0 19,0 25,1l0 -8c0,-15 -7,-23 -22,-23 -10,0 -25,3 -45,10 -6,-6 -9,-15 -10,-28 21,-9 43,-13 66,-13 15,0 27,4 37,13 10,8 14,21 14,38l0 61c0,11 3,18 8,22zm-75 -7c10,0 19,-4 28,-13l0 -26c-3,0 -6,0 -9,-1 -3,0 -6,0 -9,0 -9,0 -15,2 -20,5 -5,3 -7,9 -7,16 0,6 1,11 4,14 3,3 7,5 12,5zm101 -9l42 -57c3,-4 11,-14 24,-29l-1 -1c-12,1 -24,2 -39,2l-27 0c-1,-4 -1,-9 -1,-14 0,-5 1,-10 2,-16l102 0c3,10 5,18 5,22 0,4 -1,9 -4,12l-42 57c-9,11 -16,21 -23,28l1 1c8,-1 16,-1 26,-1l12 0c13,0 23,-2 30,-5 3,6 4,12 4,16 0,12 -7,18 -22,18l-89 0c-3,-9 -5,-15 -5,-20 0,-5 2,-9 6,-15zm261 -110l-38 141c-7,24 -15,41 -25,53 -10,11 -25,17 -45,17 -11,0 -22,-2 -33,-6 0,-4 0,-9 2,-15 2,-6 4,-10 6,-13 9,3 17,4 25,4 15,0 26,-10 32,-31l1 -4c-8,0 -14,-2 -18,-4 -4,-3 -7,-7 -9,-13l-37 -130c8,-4 15,-6 22,-6 6,0 11,1 14,4 3,2 5,7 7,13l17 63c1,5 4,18 9,42 0,1 1,2 3,2l29 -121c5,-1 10,-2 17,-2 7,0 13,1 19,3l1 2zm161 77l-27 0 0 68c-6,1 -12,1 -20,1 -8,0 -15,0 -20,-1l0 -203 2 -2c16,0 30,-1 41,-1 11,0 19,0 25,0 22,0 39,6 52,18 13,12 19,29 19,51 0,11 -2,21 -5,30 -3,9 -8,16 -14,22 -6,6 -14,10 -22,13 -9,3 -18,5 -29,5zm-27 -107l0 76c8,0 14,0 20,0 5,0 10,0 14,-1 4,-1 7,-2 10,-4 3,-2 5,-5 7,-9 2,-3 3,-7 4,-12 1,-4 1,-9 1,-13 0,-5 0,-9 -1,-14 -1,-4 -3,-9 -5,-12 -2,-4 -6,-6 -10,-9 -4,-2 -9,-3 -15,-3 -6,0 -11,0 -15,0 -4,0 -8,0 -11,0zm173 57l0 118c-3,1 -6,1 -9,1 -3,0 -7,0 -10,0 -3,0 -7,0 -10,0 -3,0 -7,-1 -10,-1l0 -104c0,-11 -4,-16 -13,-16l-4 0c-1,-4 -2,-9 -2,-14 0,-4 1,-9 2,-14 5,0 9,-1 13,-1 4,0 7,0 10,0l5 0c9,0 16,3 21,8 5,6 8,13 8,23zm-45 -88c5,-3 11,-4 20,-4 5,0 9,0 12,1 3,1 5,2 7,3 1,1 2,3 3,6 0,3 1,6 1,9 -1,10 -2,16 -4,17 -2,1 -8,2 -19,3 -11,0 -18,-2 -20,-4 -2,-3 -3,-8 -3,-15 0,-6 1,-11 3,-16zm80 171l42 -57c3,-4 11,-14 24,-29l-1 -1c-12,1 -24,2 -39,2l-27 0c-1,-4 -1,-9 -1,-14 0,-5 1,-10 2,-16l102 0c3,10 5,18 5,22 0,4 -1,9 -4,12l-42 57c-9,11 -16,21 -23,28l1 1c8,-1 16,-1 26,-1l12 0c13,0 23,-2 30,-5 3,6 4,12 4,16 0,12 -7,18 -22,18l-89 0c-3,-9 -5,-15 -5,-20 0,-5 2,-9 6,-15zm261 -110l-38 141c-7,24 -15,41 -25,53 -10,11 -25,17 -45,17 -11,0 -22,-2 -33,-6 0,-4 0,-9 2,-15 2,-6 4,-10 6,-13 9,3 17,4 25,4 15,0 26,-10 32,-31l1 -4c-8,0 -14,-2 -18,-4 -4,-3 -7,-7 -9,-13l-37 -130c8,-4 15,-6 22,-6 6,0 11,1 14,4 3,2 5,7 7,13l17 63c1,5 4,18 9,42 0,1 1,2 3,2l29 -121c5,-1 10,-2 17,-2 7,0 13,1 19,3l1 2z"/>
  </g>
 </g>
</svg>
