<?xml version="1.0" encoding="UTF-8"?>
<!DOCTYPE svg PUBLIC "-//W3C//DTD SVG 1.1//EN" "http://www.w3.org/Graphics/SVG/1.1/DTD/svg11.dtd">
<!-- Creator: CorelDRAW 2017 -->
<svg xmlns="http://www.w3.org/2000/svg" xml:space="preserve" width="135.634mm" height="119.655mm" version="1.1" style="shape-rendering:geometricPrecision; text-rendering:geometricPrecision; image-rendering:optimizeQuality; fill-rule:evenodd; clip-rule:evenodd"
viewBox="0 0 13723 12106"
 xmlns:xlink="http://www.w3.org/1999/xlink">
 <defs>
  <style type="text/css">
   <![CDATA[
    .fil2 {fill:#FEFEFE;fill-rule:nonzero}
    .fil14 {fill:#F0897E;fill-rule:nonzero}
    .fil34 {fill:#EA5A5B;fill-rule:nonzero}
    .fil36 {fill:#EC7466;fill-rule:nonzero}
    .fil1 {fill:#F4F8FD;fill-rule:nonzero}
    .fil5 {fill:#E3EDF9;fill-rule:nonzero}
    .fil13 {fill:#E2EBF8;fill-rule:nonzero}
    .fil8 {fill:#E0EAF8;fill-rule:nonzero}
    .fil9 {fill:#DEE9F7;fill-rule:nonzero}
    .fil6 {fill:#DCE7F6;fill-rule:nonzero}
    .fil3 {fill:#DAE4F5;fill-rule:nonzero}
    .fil10 {fill:#D7E3F5;fill-rule:nonzero}
    .fil0 {fill:#D0E1F4;fill-rule:nonzero}
    .fil12 {fill:#C1D8F1;fill-rule:nonzero}
    .fil7 {fill:#BFD1ED;fill-rule:nonzero}
    .fil11 {fill:#A4C3E7;fill-rule:nonzero}
    .fil38 {fill:#80AFDE;fill-rule:nonzero}
    .fil17 {fill:#6D98CF;fill-rule:nonzero}
    .fil18 {fill:#6993CD;fill-rule:nonzero}
    .fil23 {fill:#648FCA;fill-rule:nonzero}
    .fil24 {fill:#608DC9;fill-rule:nonzero}
    .fil20 {fill:#5F8BC7;fill-rule:nonzero}
    .fil19 {fill:#5987C5;fill-rule:nonzero}
    .fil22 {fill:#5884C2;fill-rule:nonzero}
    .fil4 {fill:#5072B6;fill-rule:nonzero}
    .fil27 {fill:#3E6EB4;fill-rule:nonzero}
    .fil25 {fill:#406DB3;fill-rule:nonzero}
    .fil29 {fill:#3B6CB2;fill-rule:nonzero}
    .fil32 {fill:#3D6BB2;fill-rule:nonzero}
    .fil28 {fill:#3A6BB1;fill-rule:nonzero}
    .fil26 {fill:#3B69B0;fill-rule:nonzero}
    .fil31 {fill:#3A66AE;fill-rule:nonzero}
    .fil21 {fill:#3C63AB;fill-rule:nonzero}
    .fil30 {fill:#375EA7;fill-rule:nonzero}
    .fil33 {fill:#325BA5;fill-rule:nonzero}
    .fil37 {fill:#2354A0;fill-rule:nonzero}
    .fil35 {fill:#253E5E;fill-rule:nonzero}
    .fil15 {fill:#2A344F;fill-rule:nonzero}
    .fil16 {fill:#262B3D;fill-rule:nonzero}
   ]]>
  </style>
 </defs>
 <g id="Layer_x0020_1">
  <metadata id="CorelCorpID_0Corel-Layer"/>
  <path class="fil0" d="M12618 11465l379 0 0 -9 -379 0 0 9z"/>
  <path class="fil0" d="M10816 11470l1540 0 0 -9 -1540 0 0 9z"/>
  <path class="fil0" d="M6312 11384l2599 0 0 -9 -2599 0 0 9z"/>
  <path class="fil0" d="M3992 11540l825 0 0 -9 -825 0 0 9z"/>
  <path class="fil0" d="M933 11389l1136 0 0 -9 -1136 0 0 9z"/>
  <path class="fil0" d="M2266 11389l1062 0 0 -9 -1062 0 0 9z"/>
  <path class="fil0" d="M189 11233l1084 0 0 -9 -1084 0 0 9z"/>
  <path class="fil0" d="M13224 10263l-12955 0c-148,0 -268,-121 -268,-268l0 -9726c0,-148 121,-268 268,-268l12955 0c148,0 268,121 268,268l0 9726c0,148 -121,268 -268,268z"/>
  <path class="fil1" d="M13295 10263l-12955 0c-148,0 -268,-121 -268,-268l0 -9726c0,-148 121,-268 268,-268l12955 0c148,0 268,121 268,268l0 9726c0,148 -121,268 -268,268z"/>
  <path class="fil0" d="M71 694l0 9301c0,148 121,268 268,268l12955 0c148,0 268,-121 268,-268l0 -9301 -13492 0z"/>
  <path class="fil2" d="M121 9906l13393 0 0 -8855 -13393 0 0 8855z"/>
  <path class="fil3" d="M599 9087l12436 0 0 -7458 -12436 0 0 7458zm12441 9l-12445 0 -4 -4 0 -7466 4 -4 12445 0 4 4 0 7466 -4 4z"/>
  <path class="fil2" d="M660 224c-69,0 -125,56 -125,125 0,69 56,125 125,125 69,0 125,-56 125,-125 0,-69 -56,-125 -125,-125zm0 286c-89,0 -161,-72 -161,-161 0,-89 72,-161 161,-161 89,0 161,72 161,161 0,89 -72,161 -161,161z"/>
  <path class="fil2" d="M1166 224c-69,0 -125,56 -125,125 0,69 56,125 125,125 69,0 125,-56 125,-125 0,-69 -56,-125 -125,-125zm0 286c-89,0 -161,-72 -161,-161 0,-89 72,-161 161,-161 89,0 161,72 161,161 0,89 -72,161 -161,161z"/>
  <path class="fil2" d="M1672 224c-69,0 -125,56 -125,125 0,69 56,125 125,125 69,0 125,-56 125,-125 0,-69 -56,-125 -125,-125zm0 286c-89,0 -161,-72 -161,-161 0,-89 72,-161 161,-161 89,0 161,72 161,161 0,89 -72,161 -161,161z"/>
  <path class="fil0" d="M71 712l13492 0 0 -36 -13492 0 0 36z"/>
  <path class="fil1" d="M1273 8221l6172 0 0 -6291 -6172 0 0 6291z"/>
  <path class="fil1" d="M8660 3977l4075 0 0 -2046 -4075 0 0 2046z"/>
  <path class="fil2" d="M9887 2696c0,256 -208,464 -464,464 -256,0 -464,-208 -464,-464 0,-256 208,-464 464,-464 256,0 464,208 464,464z"/>
  <path class="fil2" d="M10315 2422l2011 0 0 -190 -2011 0 0 190z"/>
  <path class="fil2" d="M10315 2771l1305 0 0 -190 -1305 0 0 190z"/>
  <path class="fil1" d="M8660 9906l4075 0 0 -5164 -4075 0 0 5164z"/>
  <path class="fil2" d="M8841 6870l1738 0 0 -1738 -1738 0 0 1738z"/>
  <path class="fil2" d="M8854 8829l1738 0 0 -1738 -1738 0 0 1738z"/>
  <path class="fil2" d="M10816 6054l1738 0 0 -922 -1738 0 0 922z"/>
  <path class="fil2" d="M10816 8013l1738 0 0 -1738 -1738 0 0 1738z"/>
  <path class="fil2" d="M8854 9906l1738 0 0 -869 -1738 0 0 869z"/>
  <path class="fil2" d="M10816 9906l1738 0 0 -1685 -1738 0 0 1685z"/>
  <path class="fil4" d="M7540 11924l-6492 0c-176,0 -319,-144 -319,-319l0 -1158c0,-176 144,-319 319,-319l6492 0c176,0 319,144 319,319l0 1158c0,176 -144,319 -319,319z"/>
  <path class="fil5" d="M939 11940c-29,-21 -55,-46 -75,-75 15,11 31,20 47,28 8,17 17,32 28,47zm6937 -1603c-15,-11 -31,-20 -47,-28 -8,-16 -17,-31 -27,-46l1 0c28,20 53,45 73,74z"/>
  <path class="fil6" d="M7803 10263l-1 0c0,-1 -1,-1 -1,-2 1,1 2,1 2,2z"/>
  <path class="fil7" d="M911 11892c-17,-8 -32,-17 -47,-28 -37,-52 -59,-116 -59,-185l0 -1158c0,-176 144,-319 319,-319l6492 0c69,0 132,22 185,59 0,1 1,1 1,2 10,14 19,30 27,46 -42,-20 -88,-31 -137,-31l-6492 0c-176,0 -319,144 -319,319l0 1158c0,49 11,96 31,137z"/>
  <path class="fil5" d="M944 11946c-2,-2 -3,-4 -5,-6 3,2 6,4 9,6 -1,0 -3,0 -4,0zm7067 -181c-29,0 -58,-1 -87,-1 7,-27 11,-55 11,-85l0 -295 75 0 0 371c0,3 0,7 0,10zm0 -390l-75 0 0 -411 75 0 0 411zm0 -420l-75 0 0 -434c0,-69 -22,-132 -59,-185 81,58 135,153 135,260l0 358z"/>
  <path class="fil6" d="M7935 10964l75 0 0 -9 -75 0 0 9z"/>
  <path class="fil6" d="M7935 11384l75 0 0 -9 -75 0 0 9z"/>
  <path class="fil8" d="M7691 12074l-6492 0c-104,0 -197,-51 -255,-128 1,0 3,0 4,0 51,34 111,53 176,53l6492 0c146,0 270,-100 308,-234 29,0 58,1 87,1 -5,171 -147,309 -319,309z"/>
  <path class="fil9" d="M948 11946c-3,-2 -6,-4 -9,-6 -11,-15 -20,-31 -28,-47 42,20 88,31 137,31l160 0c-91,7 -178,15 -261,22zm6976 -181c-35,0 -71,-1 -107,-1 27,-47 43,-101 43,-159l0 -220 75 0 0 295c0,29 -4,58 -11,85zm11 -389l-75 0 0 -411 75 0 0 411zm0 -420l-75 0 0 -509c0,-49 -11,-96 -31,-137 17,8 33,17 47,28 37,52 59,116 59,185l0 434z"/>
  <path class="fil6" d="M7860 10964l75 0 0 -9 -75 0 0 9z"/>
  <path class="fil6" d="M7860 11384l75 0 0 -9 -75 0 0 9z"/>
  <path class="fil9" d="M7616 11999l-6492 0c-65,0 -125,-20 -176,-53 83,-8 170,-15 261,-22l6332 0c118,0 221,-65 276,-160 36,0 71,1 107,1 -37,135 -161,234 -308,234z"/>
  <path class="fil10" d="M7540 11924l-6492 0c-49,0 -96,-11 -137,-31 -20,-42 -31,-88 -31,-137l0 -1158c0,-176 144,-319 319,-319l6492 0c49,0 96,11 137,31 20,42 31,88 31,137l0 1158c0,58 -16,112 -43,159 -55,95 -159,160 -276,160z"/>
  <path class="fil4" d="M6267 10853l-3466 0c-38,0 -68,-31 -68,-68l0 -135c0,-38 31,-68 68,-68l3466 0c38,0 68,31 68,68l0 135c0,38 -31,68 -68,68z"/>
  <path class="fil4" d="M4354 11312l-1552 0c-38,0 -68,-31 -68,-68l0 -135c0,-38 31,-68 68,-68l1552 0c38,0 68,31 68,68l0 135c0,38 -31,68 -68,68z"/>
  <path class="fil4" d="M5853 11312l-1191 0c-38,0 -68,-31 -68,-68l0 -135c0,-38 31,-68 68,-68l1191 0c38,0 68,31 68,68l0 135c0,38 -31,68 -68,68z"/>
  <path class="fil11" d="M6960 11601l-4190 0c-21,0 -37,-17 -37,-37l0 -28c0,-21 17,-37 37,-37l4190 0c21,0 37,17 37,37l0 28c0,21 -17,37 -37,37z"/>
  <path class="fil4" d="M2386 11176c0,354 -287,640 -640,640 -354,0 -640,-287 -640,-640 0,-354 287,-640 640,-640 354,0 640,287 640,640z"/>
  <path class="fil2" d="M2274 11176c0,91 -23,177 -64,252 -89,165 -264,277 -464,277 -201,0 -375,-112 -464,-277 -41,-75 -64,-160 -64,-252 0,-292 236,-528 528,-528 292,0 528,236 528,528z"/>
  <path class="fil12" d="M2210 11428c-89,165 -264,277 -464,277 -201,0 -375,-112 -464,-277 133,-89 293,-141 464,-141 172,0 331,52 464,141z"/>
  <path class="fil12" d="M1981 10995c0,130 -105,235 -235,235 -130,0 -235,-105 -235,-235 0,-130 105,-235 235,-235 130,0 235,105 235,235z"/>
  <path class="fil4" d="M7540 9845l-6492 0c-176,0 -319,-144 -319,-319l0 -1158c0,-176 144,-319 319,-319l6492 0c176,0 319,144 319,319l0 1158c0,176 -144,319 -319,319z"/>
  <path class="fil13" d="M939 9861c-29,-21 -55,-46 -75,-75 15,11 31,20 47,28 8,17 17,32 28,47zm6937 -1603c-15,-11 -31,-20 -47,-28 -8,-17 -17,-33 -28,-47 29,21 55,46 75,75z"/>
  <path class="fil7" d="M911 9814c-17,-8 -32,-17 -47,-28 -37,-52 -59,-116 -59,-185l0 -1158c0,-176 144,-319 319,-319l6492 0c69,0 132,22 185,59 11,15 20,31 28,47 -42,-20 -88,-31 -137,-31l-6492 0c-176,0 -319,144 -319,319l0 1158c0,49 11,96 31,137z"/>
  <path class="fil6" d="M7691 9996l-6492 0c-85,0 -163,-34 -221,-89l53 0c29,9 60,14 93,14l6492 0c32,0 63,-5 93,-14l203 0c-57,55 -135,89 -221,89z"/>
  <path class="fil13" d="M7912 9906l-203 0c131,-40 227,-162 227,-305l0 -505 75 0 0 580c0,90 -38,172 -98,230zm-6881 0l-53 0c-14,-14 -28,-29 -39,-45 28,20 59,35 92,45zm6980 -819l-75 0 0 -644c0,-69 -22,-132 -59,-185 81,58 135,153 135,260l0 569z"/>
  <path class="fil6" d="M7935 9096l75 0 0 -9 -75 0 0 9z"/>
  <path class="fil6" d="M7616 9920l-6492 0c-32,0 -63,-5 -93,-14l6678 0c-29,9 -61,14 -93,14z"/>
  <path class="fil9" d="M7709 9906l-6678 0c-33,-10 -64,-26 -92,-45 -11,-15 -20,-31 -28,-47 42,20 88,31 137,31l6492 0c176,0 319,-144 319,-319l0 -429 75 0 0 505c0,143 -96,265 -227,305zm227 -819l-75 0 0 -720c0,-49 -11,-96 -31,-137 17,8 33,17 47,28 37,52 59,116 59,185l0 644z"/>
  <path class="fil6" d="M7860 9096l75 0 0 -9 -75 0 0 9z"/>
  <path class="fil10" d="M7540 9845l-6492 0c-49,0 -96,-11 -137,-31 -20,-42 -31,-88 -31,-137l0 -1158c0,-176 144,-319 319,-319l6492 0c49,0 96,11 137,31 20,42 31,88 31,137l0 1158c0,176 -144,319 -319,319z"/>
  <path class="fil4" d="M3834 8775l-1033 0c-38,0 -68,-31 -68,-68l0 -135c0,-38 31,-68 68,-68l1033 0c38,0 68,31 68,68l0 135c0,38 -31,68 -68,68z"/>
  <path class="fil4" d="M4920 8775l-797 0c-38,0 -68,-31 -68,-68l0 -135c0,-38 31,-68 68,-68l797 0c38,0 68,31 68,68l0 135c0,38 -31,68 -68,68z"/>
  <path class="fil4" d="M6428 9233l-3627 0c-38,0 -68,-31 -68,-68l0 -135c0,-38 31,-68 68,-68l3627 0c38,0 68,31 68,68l0 135c0,38 -31,68 -68,68z"/>
  <path class="fil11" d="M5299 9522l-2529 0c-21,0 -37,-17 -37,-37l0 -28c0,-21 17,-37 37,-37l2529 0c21,0 37,17 37,37l0 28c0,21 -17,37 -37,37z"/>
  <path class="fil4" d="M2386 9097c0,354 -287,640 -640,640 -354,0 -640,-287 -640,-640 0,-354 287,-640 640,-640 354,0 640,287 640,640z"/>
  <path class="fil2" d="M2274 9097c0,91 -23,177 -64,252 -89,165 -264,277 -464,277 -201,0 -375,-112 -464,-277 -41,-75 -64,-160 -64,-252 0,-292 236,-528 528,-528 292,0 528,236 528,528z"/>
  <path class="fil12" d="M2210 9349c-89,165 -264,277 -464,277 -201,0 -375,-112 -464,-277 133,-89 293,-141 464,-141 172,0 331,52 464,141z"/>
  <path class="fil12" d="M1981 8917c0,130 -105,235 -235,235 -130,0 -235,-105 -235,-235 0,-130 105,-235 235,-235 130,0 235,105 235,235z"/>
  <path class="fil4" d="M7540 7766l-6492 0c-176,0 -319,-144 -319,-319l0 -1158c0,-176 144,-319 319,-319l6492 0c176,0 319,144 319,319l0 1158c0,176 -144,319 -319,319z"/>
  <path class="fil13" d="M939 7782c-29,-21 -55,-46 -75,-75 15,11 31,20 47,28 8,17 17,33 28,47z"/>
  <path class="fil7" d="M911 7735c-17,-8 -33,-17 -47,-28 -37,-52 -59,-116 -59,-185l0 -1158c0,-176 144,-319 319,-319l5632 0 283 75 -5840 0c-176,0 -319,144 -319,319l0 1158c0,49 11,96 31,137z"/>
  <path class="fil13" d="M7691 7917l-246 0 0 -75 171 0c176,0 319,-144 319,-319l0 -1158c0,-2 0,-4 0,-6l69 18c4,20 6,41 6,62l0 1158c0,176 -144,319 -319,319zm-6418 0l-74 0c-107,0 -202,-53 -260,-135 52,37 116,59 185,59l149 0 0 75z"/>
  <path class="fil13" d="M1273 7917l6172 0 0 -75 -6172 0 0 75z"/>
  <path class="fil9" d="M7616 7841l-171 0 0 -75 95 0c176,0 319,-144 319,-319l0 -1108 75 20c0,2 0,4 0,6l0 1158c0,176 -144,319 -319,319zm-6343 0l-149 0c-69,0 -132,-22 -185,-59 -11,-15 -20,-31 -28,-47 42,20 88,31 137,31l225 0 0 75z"/>
  <path class="fil9" d="M1273 7841l6172 0 0 -75 -6172 0 0 75z"/>
  <path class="fil10" d="M7540 7766l-6492 0c-49,0 -96,-11 -137,-31 -20,-42 -31,-88 -31,-137l0 -1158c0,-176 144,-319 319,-319l5840 0 820 218 0 1108c0,176 -144,319 -319,319z"/>
  <path class="fil4" d="M6241 6696l-3440 0c-38,0 -68,-31 -68,-68l0 -135c0,-38 31,-68 68,-68l3440 0c38,0 68,31 68,68l0 135c0,38 -31,68 -68,68z"/>
  <path class="fil4" d="M5083 7154l-2282 0c-38,0 -68,-31 -68,-68l0 -135c0,-38 31,-68 68,-68l2282 0c38,0 68,31 68,68l0 135c0,38 -31,68 -68,68z"/>
  <path class="fil4" d="M5634 7154l-212 0c-38,0 -68,-31 -68,-68l0 -135c0,-38 31,-68 68,-68l212 0c38,0 68,31 68,68l0 135c0,38 -31,68 -68,68z"/>
  <path class="fil11" d="M4611 7444l-1841 0c-21,0 -37,-17 -37,-37l0 -28c0,-21 17,-37 37,-37l1841 0c21,0 37,17 37,37l0 28c0,21 -17,37 -37,37z"/>
  <path class="fil11" d="M6990 7444l-2110 0c-21,0 -37,-17 -37,-37l0 -28c0,-21 17,-37 37,-37l2110 0c21,0 37,17 37,37l0 28c0,21 -17,37 -37,37z"/>
  <path class="fil4" d="M2386 7018c0,354 -287,640 -640,640 -354,0 -640,-287 -640,-640 0,-354 287,-640 640,-640 354,0 640,287 640,640z"/>
  <path class="fil2" d="M2274 7018c0,91 -23,177 -64,252 -89,165 -264,277 -464,277 -201,0 -375,-112 -464,-277 -41,-75 -64,-160 -64,-252 0,-292 236,-528 528,-528 292,0 528,237 528,528z"/>
  <path class="fil12" d="M2210 7270c-89,165 -264,277 -464,277 -201,0 -375,-112 -464,-277 133,-89 293,-141 464,-141 172,0 331,52 464,141z"/>
  <path class="fil12" d="M1981 6838c0,130 -105,235 -235,235 -130,0 -235,-105 -235,-235 0,-130 105,-235 235,-235 130,0 235,105 235,235z"/>
  <path class="fil4" d="M2348 1723l163 0 0 -36 -163 0 0 36z"/>
  <path class="fil4" d="M1705 1723l385 0 0 -36 -385 0 0 36z"/>
  <path class="fil4" d="M7540 3608l-6492 0c-176,0 -319,-144 -319,-319l0 -1158c0,-176 144,-319 319,-319l6492 0c176,0 319,144 319,319l0 1158c0,176 -144,319 -319,319z"/>
  <path class="fil13" d="M939 3625c-29,-21 -55,-46 -75,-75 15,11 31,20 47,28 8,17 17,32 28,47zm6937 -1603c-15,-11 -31,-20 -47,-28 -8,-17 -17,-32 -28,-47 29,21 55,46 75,75z"/>
  <path class="fil7" d="M911 3577c-17,-8 -32,-17 -47,-28 -37,-52 -59,-116 -59,-185l0 -1158c0,-176 144,-319 319,-319l6492 0c69,0 132,22 185,59 11,15 20,31 28,47 -42,-20 -88,-31 -137,-31l-6492 0c-176,0 -319,144 -319,319l0 1158c0,49 11,96 31,137z"/>
  <path class="fil13" d="M7691 3759l-246 0 0 -75 171 0c176,0 319,-144 319,-319l0 -1158c0,-69 -22,-132 -59,-185 81,58 135,153 135,260l0 1158c0,176 -144,319 -319,319zm-6418 0l-74 0c-107,0 -202,-53 -260,-135 52,37 116,59 185,59l149 0 0 75z"/>
  <path class="fil13" d="M1273 3759l6172 0 0 -75 -6172 0 0 75z"/>
  <path class="fil9" d="M7616 3684l-171 0 0 -75 95 0c176,0 319,-144 319,-319l0 -1158c0,-49 -11,-96 -31,-137 17,8 33,17 47,28 37,52 59,116 59,185l0 1158c0,176 -144,319 -319,319zm-6343 0l-149 0c-69,0 -132,-22 -185,-59 -11,-15 -20,-31 -28,-47 42,20 88,31 137,31l225 0 0 75z"/>
  <path class="fil9" d="M1273 3684l6172 0 0 -75 -6172 0 0 75z"/>
  <path class="fil10" d="M7540 3608l-6492 0c-49,0 -96,-11 -137,-31 -20,-42 -31,-88 -31,-137l0 -1158c0,-176 144,-319 319,-319l6492 0c49,0 96,11 137,31 20,42 31,88 31,137l0 1158c0,176 -144,319 -319,319z"/>
  <path class="fil4" d="M5958 2538l-3157 0c-38,0 -68,-31 -68,-68l0 -135c0,-38 31,-68 68,-68l3157 0c38,0 68,31 68,68l0 135c0,38 -31,68 -68,68z"/>
  <path class="fil4" d="M7047 2997l-4245 0c-38,0 -68,-31 -68,-68l0 -135c0,-38 31,-68 68,-68l4245 0c38,0 68,31 68,68l0 135c0,38 -31,68 -68,68z"/>
  <path class="fil11" d="M3929 3286l-1158 0c-21,0 -37,-17 -37,-37l0 -28c0,-21 17,-37 37,-37l1158 0c21,0 37,17 37,37l0 28c0,21 -17,37 -37,37z"/>
  <path class="fil4" d="M2386 2861c0,354 -287,640 -640,640 -354,0 -640,-287 -640,-640 0,-354 287,-640 640,-640 354,0 640,287 640,640z"/>
  <path class="fil2" d="M2274 2861c0,91 -23,177 -64,252 -89,165 -264,277 -464,277 -201,0 -375,-112 -464,-277 -41,-75 -64,-160 -64,-252 0,-292 236,-528 528,-528 292,0 528,237 528,528z"/>
  <path class="fil12" d="M2210 3113c-89,165 -264,277 -464,277 -201,0 -375,-112 -464,-277 133,-89 293,-141 464,-141 172,0 331,52 464,141z"/>
  <path class="fil12" d="M1981 2680c0,130 -105,235 -235,235 -130,0 -235,-105 -235,-235 0,-130 105,-235 235,-235 130,0 235,105 235,235z"/>
  <path class="fil14" d="M12105 6626l-234 122 262 204c0,0 176,-148 109,-250l-136 -76z"/>
  <path class="fil14" d="M11737 6996l224 156 172 -200 -262 -204 -134 248z"/>
  <path class="fil14" d="M12195 4602c32,42 60,80 88,121 28,40 54,81 81,122 52,82 102,166 147,253 47,86 88,176 127,268l28 70 25 72c9,24 16,49 23,73l11 37 3 9 4 15c3,12 5,22 7,33 11,85 -2,145 -14,202 -14,56 -31,106 -50,155 -38,96 -84,184 -131,269 -96,170 -204,326 -324,478l-164 -106c79,-165 156,-334 223,-500 33,-83 64,-167 86,-247 11,-40 21,-80 25,-115 5,-35 4,-68 1,-76l-1 -1c0,0 0,0 0,0 0,0 0,1 -1,-1l-3 -7 -11 -29c-8,-20 -15,-39 -24,-59l-26 -59 -28 -59c-39,-78 -81,-155 -126,-232 -45,-76 -92,-153 -141,-228 -48,-75 -101,-151 -149,-220l315 -237z"/>
  <path class="fil15" d="M12683 5150l-588 412c0,0 -35,-77 -85,-190 -40,-90 -91,-201 -141,-314 -20,-46 -40,-91 -60,-136 -136,-310 23,-533 302,-491 246,37 572,719 572,719z"/>
  <path class="fil16" d="M12038 4721c12,111 13,453 -28,652 -40,-90 -91,-201 -141,-314l169 -338z"/>
  <path class="fil12" d="M12917 7528l-6274 -1669c-170,-45 -272,-221 -226,-391l298 -1119c45,-170 221,-272 391,-226l6274 1669c170,45 272,221 226,391l-298 1119c-45,170 -221,272 -391,226z"/>
  <path class="fil17" d="M13649 6081c-12,-14 -25,-27 -39,-39 -3,-18 -8,-36 -15,-53 23,28 41,59 54,92z"/>
  <path class="fil18" d="M6533 5846c-23,-28 -41,-59 -53,-92 12,14 25,27 39,39 3,18 8,36 15,53z"/>
  <path class="fil19" d="M13611 6041c-35,-30 -77,-53 -125,-65l-6274 -1669c-27,-7 -55,-11 -82,-11 -141,0 -271,95 -309,237l-298 1119c-13,47 -14,95 -5,141 -14,-12 -27,-25 -39,-39 -23,-60 -27,-127 -10,-194l298 -1119c38,-142 168,-237 309,-237 27,0 54,3 82,11l6274 1669c66,18 122,55 163,105 6,17 11,35 15,53z"/>
  <path class="fil17" d="M13563 6927l0 -293 96 -359c18,-66 13,-134 -10,-194 64,77 91,183 63,286l-149 561z"/>
  <path class="fil20" d="M13514 7113l0 -293 50 -186 0 293 -50 186z"/>
  <path class="fil17" d="M13106 7723c-20,0 -41,-2 -61,-6l0 -86c3,0 5,0 8,0 141,0 271,-95 309,-237l153 -574 0 293 -99 372c-38,142 -168,237 -309,237zm-70 -8c-4,-1 -8,-2 -11,-3l-290 -77 0 -78 236 63c22,6 43,9 65,10l0 85zm-4376 -1164l-655 -174c-6,-31 -17,-59 -31,-86l686 183 0 78z"/>
  <path class="fil20" d="M13045 7717c-3,-1 -6,-1 -9,-2l0 -85c3,0 6,0 9,0l0 86z"/>
  <path class="fil18" d="M6766 5969l-150 0c-37,-34 -65,-76 -83,-123 41,49 97,87 163,105l69 18z"/>
  <path class="fil18" d="M12735 7635l-181 -48 0 -78 181 48 0 78zm-1919 -510l-958 -255 293 0 665 177 0 78zm-1975 -525l-181 -48 0 -78 181 48 0 78z"/>
  <path class="fil17" d="M10151 6870l-293 0 -1017 -270 0 -78 1310 348z"/>
  <path class="fil17" d="M12554 7587l-1738 -462 0 -78 1738 462 0 78z"/>
  <path class="fil21" d="M7049 6045l-293 0 -6 -1c-52,-14 -97,-40 -134,-74l150 0 283 75z"/>
  <path class="fil22" d="M7333 6120l-293 0 -283 -75 293 0 284 75z"/>
  <path class="fil23" d="M8004 6377l-69 -18c0,-28 -5,-55 -12,-81l50 13c14,27 25,56 31,86z"/>
  <path class="fil24" d="M7935 6358l-75 -20 0 -50c0,-10 0,-19 -1,-29l65 17c7,26 12,53 12,81z"/>
  <path class="fil20" d="M7860 6338l-820 -218 293 0 526 140c1,9 1,19 1,29l0 50z"/>
  <path class="fil25" d="M13563 6634l0 -293 42 -158c13,-47 14,-95 5,-141 14,12 27,25 39,39 23,60 27,127 10,194l-96 359z"/>
  <path class="fil26" d="M13514 6820l0 -293 50 -186 0 293 -50 186z"/>
  <path class="fil27" d="M13052 7631c-3,0 -5,0 -8,0l0 -95c123,-18 230,-107 263,-234l206 -775 0 293 -153 574c-38,142 -168,237 -309,237zm-17 0c-22,-1 -43,-5 -65,-10l-236 -63 0 -78 183 49c27,7 55,11 82,11 12,0 25,-1 37,-2l0 94zm-4376 -1157l-686 -183c-21,-39 -49,-73 -83,-100l769 205 0 78z"/>
  <path class="fil28" d="M13045 7631c-3,0 -6,0 -9,0l0 -94c3,0 6,-1 9,-1l0 95z"/>
  <path class="fil29" d="M7059 5969l-293 0 -69 -18c-66,-18 -122,-55 -163,-105 -6,-17 -11,-35 -15,-53 35,30 77,53 125,65l416 111z"/>
  <path class="fil29" d="M12735 7557l-181 -48 0 -78 181 48 0 78zm-1919 -510l-665 -177 293 0 372 99 0 78zm-1975 -525l-181 -48 0 -78 181 48 0 78z"/>
  <path class="fil27" d="M10444 6870l-293 0 -1310 -348 0 -78 1603 426z"/>
  <path class="fil27" d="M12554 7509l-1738 -462 0 -78 1738 462 0 78z"/>
  <path class="fil30" d="M7342 6045l-293 0 -283 -75 293 0 283 75z"/>
  <path class="fil31" d="M7626 6120l-293 0 -284 -75 293 0 284 75z"/>
  <path class="fil32" d="M7973 6291l-50 -13c-9,-32 -23,-62 -41,-89l9 2c34,27 62,61 83,100z"/>
  <path class="fil28" d="M7923 6277l-65 -17c-3,-29 -9,-57 -19,-83l43 11c18,27 32,57 41,89z"/>
  <path class="fil26" d="M7858 6260l-526 -140 293 0 214 57c10,26 16,54 19,83z"/>
  <path class="fil26" d="M12999 7538c-27,0 -54,-3 -82,-11l-183 -49 -181 -48 -1738 -462 -372 -99 -1603 -426 -181 -48 -769 -205 -9 -2 -43 -11 -214 -57 -284 -75 -283 -75 -416 -111c-47,-13 -90,-35 -125,-65 -9,-45 -7,-93 5,-141l298 -1119c38,-142 168,-237 309,-237 27,0 54,3 82,11l6274 1669c47,13 89,35 125,65 9,45 7,93 -5,141l-42 158 -50 186 -206 775c-34,127 -141,216 -263,234 -3,0 -6,1 -9,1 -12,1 -24,2 -37,2z"/>
  <path class="fil12" d="M12602 6336l-3989 -1061c-36,-10 -58,-47 -48,-84l35 -131c10,-36 47,-58 84,-48l3989 1061c36,10 58,47 48,84l-35 131c-10,36 -47,58 -84,48z"/>
  <path class="fil12" d="M11014 6389l-2519 -670c-36,-10 -58,-47 -48,-84l35 -131c10,-36 47,-58 84,-48l2520 670c36,10 58,47 48,84l-35 131c-10,36 -47,58 -84,48z"/>
  <path class="fil2" d="M12067 6968l-3677 -978c-20,-5 -32,-26 -26,-45l7 -27c5,-20 26,-32 46,-26l3676 978c20,5 32,26 26,45l-7 27c-5,20 -26,32 -45,26z"/>
  <path class="fil4" d="M8128 5480c-91,342 -442,545 -783,454 -342,-91 -545,-442 -454,-783 91,-342 442,-545 783,-454 342,91 545,441 454,783z"/>
  <path class="fil2" d="M8020 5452c-23,88 -68,165 -126,227 -128,136 -326,200 -520,148 -194,-52 -334,-205 -378,-387 -20,-83 -20,-171 3,-260 75,-282 364,-450 646,-375 282,75 450,364 375,646z"/>
  <path class="fil12" d="M7894 5678c-128,136 -326,200 -520,148 -194,-52 -334,-205 -378,-387 151,-52 319,-61 485,-17 166,44 307,135 413,255z"/>
  <path class="fil12" d="M7784 5202c-33,126 -162,200 -288,167 -126,-33 -200,-162 -167,-288 33,-126 162,-200 288,-167 126,33 200,162 167,288z"/>
  <path class="fil14" d="M11741 3664c-67,182 -159,520 -48,667 0,0 -82,182 -431,126 -384,-62 -153,-220 -153,-220 218,-16 237,-173 224,-325l408 -249z"/>
  <path class="fil33" d="M11031 4298c20,-33 2,-163 2,-163 0,0 555,-41 748,41 104,44 -1,229 -1,229l-750 -107z"/>
  <path class="fil15" d="M11099 3344c-3,21 -17,36 -31,34 -14,-2 -22,-21 -18,-41 3,-21 17,-36 31,-34 14,2 22,21 19,41z"/>
  <path class="fil34" d="M11098 3354c0,0 -66,112 -127,161 31,40 96,34 96,34l31 -196z"/>
  <path class="fil15" d="M11184 3280c-4,0 -9,-2 -11,-7 -26,-48 -70,-53 -71,-53 -7,-1 -12,-7 -11,-13 1,-7 7,-12 13,-11 2,0 59,6 91,66 3,6 1,13 -5,17l-6 1z"/>
  <path class="fil14" d="M9480 11556l-258 -35 12 -606 258 35 -12 606z"/>
  <path class="fil14" d="M11404 11841l-260 0 -203 -602 260 0 203 602z"/>
  <path class="fil35" d="M11109 11811l317 0c11,0 20,7 22,18l51 231c5,24 -14,47 -38,46 -102,-2 -176,-8 -305,-8 -79,0 -242,8 -351,8 -107,0 -123,-108 -79,-118 200,-44 276,-104 340,-162 12,-10 27,-16 42,-16z"/>
  <path class="fil35" d="M9213 11463l281 38c11,1 19,10 20,21l20 236c2,24 -19,45 -43,41 -101,-15 -247,-41 -375,-58 -149,-20 -249,-31 -424,-55 -106,-14 -121,-125 -75,-129 208,-17 342,3 531,-81 20,-9 43,-15 65,-12z"/>
  <path class="fil36" d="M9234 10916l-6 312 258 35 6 -312 -258 -35z"/>
  <path class="fil36" d="M11201 11239l-260 0 105 310 260 0 -105 -310z"/>
  <path class="fil15" d="M10708 4263c0,0 -409,737 -316,2226 415,56 1176,159 1378,186 38,-210 45,-1261 383,-2230 0,0 -230,-79 -454,-121 -175,-32 -429,-72 -586,-79 -207,-9 -406,18 -406,18z"/>
  <path class="fil14" d="M10866 4639c-57,99 -118,195 -177,292l-184 287c-62,96 -126,190 -190,284 -32,47 -65,94 -99,141l-51 70c-18,25 -40,54 -61,78 -84,99 -176,179 -268,255 -93,74 -188,143 -285,207 -194,129 -393,242 -603,343l-99 -168c179,-131 357,-269 527,-410 85,-71 167,-143 245,-217 77,-74 150,-152 208,-229 15,-20 26,-37 40,-58l44 -71 87 -143 175 -288 175 -289c60,-95 118,-193 178,-287l337 204z"/>
  <path class="fil15" d="M10994 4580c-33,246 -465,833 -465,833l-600 -507c0,0 314,-351 572,-551 261,-202 530,-45 493,225z"/>
  <path class="fil14" d="M8981 6353l-224 76 225 235c0,0 137,-16 125,-205l-125 -105z"/>
  <path class="fil14" d="M8608 6608l256 126 117 -70 -225 -235 -149 179z"/>
  <path class="fil14" d="M11809 3385c-56,252 -77,402 -226,512 -225,165 -520,-1 -540,-265 -18,-237 77,-609 343,-671 261,-60 480,172 424,424z"/>
  <path class="fil15" d="M12157 3376c-7,-44 -36,-79 -64,-95 122,-53 61,-116 -43,-206 -134,-120 -191,-364 -185,-416 -43,65 -31,160 5,246 -43,-50 -82,-105 -107,-168 -104,-262 -329,-33 -547,-25 -365,13 -76,-178 192,-173 -399,-122 -798,29 -732,296 66,270 512,-73 509,175 0,50 55,99 136,138 -112,231 162,696 323,711 161,15 439,-263 451,-503 20,2 43,10 62,20z"/>
  <path class="fil14" d="M11446 3442c-16,68 -62,122 -111,151 -74,44 -133,-17 -131,-99 2,-73 43,-184 126,-195 82,-10 135,66 117,143z"/>
  <path class="fil33" d="M11400 11489l-477 0c0,0 -629,-1604 -696,-2436 -14,-180 14,-414 67,-667 90,-433 249,-921 378,-1284 115,-323 208,-548 208,-548 0,0 362,49 890,120 -87,646 -793,1673 -802,2556 -8,813 431,2258 431,2258z"/>
  <path class="fil37" d="M10898 7304c-31,432 -363,890 -604,1082 90,-433 249,-921 378,-1284 67,-9 174,124 225,202z"/>
  <path class="fil33" d="M10392 6489c0,0 -1224,1629 -1302,2419 -81,821 49,2248 49,2248l437 59c0,0 132,-1341 260,-2141 139,-872 1465,-1774 1556,-2450 -426,-58 -999,-135 -999,-135z"/>
  <path class="fil38" d="M10839 11499l623 0 0 -168 -696 -11 73 178z"/>
  <path class="fil38" d="M9051 11152l606 83 23 -168 -678 -102 49 187z"/>
  <path class="fil4" d="M10984 11802c-3,0 -6,1 -8,2 -2,1 -4,2 -4,7 -1,10 2,17 8,22 14,12 48,14 92,5 -29,-17 -69,-36 -89,-36zm39 54c-20,0 -38,-3 -50,-13 -9,-8 -14,-19 -13,-33 1,-10 6,-15 11,-17 29,-15 113,37 122,43l3 6 -5 5c-18,4 -44,9 -68,9z"/>
  <path class="fil4" d="M11037 11742l-3 0c-8,1 -9,5 -9,6 -3,17 30,60 57,80 -3,-22 -11,-66 -31,-81 -4,-4 -9,-5 -14,-5zm52 105l-3 -1c-27,-15 -79,-72 -73,-101 1,-5 5,-14 20,-16 9,-1 18,1 26,8 30,25 36,100 37,103l-3 6 -3 1z"/>
  <path class="fil4" d="M9055 11433l-7 1 -5 6c-2,8 0,15 5,21 14,16 56,25 114,23 -36,-23 -85,-50 -108,-50zm92 63c-41,0 -89,-5 -108,-27 -7,-9 -10,-19 -7,-31 2,-7 6,-12 12,-15 34,-13 130,53 141,61l2 7 -6 4c-10,1 -22,1 -35,1z"/>
  <path class="fil4" d="M9127 11382c-10,0 -11,4 -12,5 -5,17 31,67 60,90 -1,-21 -4,-64 -23,-84 -7,-7 -14,-11 -24,-11l-1 0zm55 113l-3 -1c-29,-18 -83,-82 -75,-111 2,-6 8,-14 23,-14l2 0c13,0 24,5 32,15 29,31 27,102 27,105l-3 5 -3 1z"/>
 </g>
</svg>
